PathFileType  4	(X/Y/Z) C:\Users\antoi\Documents\MyRepositories\mobilecap\ResultsAnalysis
DataRate	CameraRate	NumFrames	NumMarkers	Units	OrigDataRate	OrigDataStartFrame	OrigNumFrames
100.0	100.0	4	51	mm	100.0	162	184
Frame#	Time	r_knee			r_shank_antsup			r_ankle			r_calc			r_5meta			r_toe			L_knee			L_shank_antsup			L_ankle			L_calc			L_5meta			L_toe			r_sh2			r_sh3			r_sh4			L_sh2			L_sh3			r_thigh1			r_thigh2			r_thigh3			r_thigh4			r_thigh5			L_thigh1			L_thigh2			L_thigh3			L_thigh4			r.ASIS			r.PSIS			L.ASIS			L.PSIS			C7			R_Shoulder			L_Shoulder			R_Sternum			L_Sternum			R_humerus			R_elbow_med			R_elbow_lat			R_forearm			R_wrist_radius			R_wrist_ulna			L_humerus			L_elbow_med			L_elbow_lat			L_forearm			L_wrist_radius			L_wrist_ulna			R_HJC			L_HJC			R_HJC_reg			L_HJC_reg			
		X1	Y1	Z1	X2	Y2	Z2	X3	Y3	Z3	X4	Y4	Z4	X5	Y5	Z5	X6	Y6	Z6	X7	Y7	Z7	X8	Y8	Z8	X9	Y9	Z9	X10	Y10	Z10	X11	Y11	Z11	X12	Y12	Z12	X13	Y13	Z13	X14	Y14	Z14	X15	Y15	Z15	X16	Y16	Z16	X17	Y17	Z17	X18	Y18	Z18	X19	Y19	Z19	X20	Y20	Z20	X21	Y21	Z21	X22	Y22	Z22	X23	Y23	Z23	X24	Y24	Z24	X25	Y25	Z25	X26	Y26	Z26	X27	Y27	Z27	X28	Y28	Z28	X29	Y29	Z29	X30	Y30	Z30	X31	Y31	Z31	X32	Y32	Z32	X33	Y33	Z33	X34	Y34	Z34	X35	Y35	Z35	X36	Y36	Z36	X37	Y37	Z37	X38	Y38	Z38	X39	Y39	Z39	X40	Y40	Z40	X41	Y41	Z41	X42	Y42	Z42	X43	Y43	Z43	X44	Y44	Z44	X45	Y45	Z45	X46	Y46	Z46	X47	Y47	Z47	X48	Y48	Z48	X49	Y49	Z49	X50	Y50	Z50	X51	Y51	Z51	

162	1.61000000	1436.69730	591.54968	-89.16206	1494.03468	456.03303	-102.01620	1515.09767	89.73903	-125.90010	1459.95288	65.71319	-189.01296	1658.36404	49.07720	-105.55201	1691.93359	86.73839	-155.40753	1173.24485	596.95428	-370.07155	1124.15821	394.95675	-334.90451	908.90739	166.13191	-332.36409	840.05040	161.00829	-269.27957	1006.33996	38.76788	-358.51810	1051.91621	54.64827	-297.62034	1515.81913	345.46082	-114.75916	1430.88161	436.35648	-63.74015	1448.76523	324.90463	-68.36029	1073.77967	428.23357	-397.41872	1008.49230	332.15344	-376.52682	1392.61630	873.83431	-44.82705	1433.94334	772.24554	-54.63341	1382.88925	726.88910	-49.50509	1294.11866	835.10022	-76.14056	1329.55574	730.62955	-72.68409	1323.20070	868.11729	-387.02904	1287.50817	738.95873	-378.63571	1218.48263	899.90821	-408.42897	1182.70819	768.30774	-403.04043	1380.78057	1149.15232	-83.57366	1195.34563	1183.96212	-170.61061	1380.43774	1137.50080	-365.18537	1196.98845	1188.58380	-263.34613	1301.49845	1668.80401	-282.35181	1353.15623	1632.20847	-99.15682	1367.84980	1603.04763	-445.04016	1424.19292	1564.38735	-234.15844	1429.04535	1559.81955	-291.77696	1246.99017	1397.90011	3.91942	1119.08844	1322.54851	-21.52276	1141.08127	1347.77802	46.07337	1186.48131	1137.70347	88.05551	1196.55274	1041.27746	95.37859	1169.21823	1049.03092	120.79169	1360.26470	1304.25960	-484.61039	1259.72049	1235.07602	-450.97777	1296.09945	1225.82662	-518.28480	1377.11050	1035.53510	-512.34528	1404.39611	961.21398	-493.84481	1382.53154	960.67054	-520.91634	1299.68491	1055.68839	-119.95271	1290.93395	1054.16840	-317.23230	1308.84790	1053.18303	-129.69057	1312.13770	1062.44087	-315.45377	
163	1.62000000	1446.52180	591.90421	-88.71349	1502.59053	455.58874	-101.82798	1517.32185	89.30637	-125.75831	1461.50738	66.63198	-188.82774	1660.12575	45.62742	-105.93589	1694.52308	82.57373	-155.82689	1187.88784	596.00964	-371.56794	1135.09667	394.56611	-337.38128	914.59217	170.74142	-334.32236	846.02152	168.43172	-270.98776	1007.28094	39.01725	-358.93376	1052.63970	54.05201	-298.06687	1522.73168	344.69480	-114.70162	1439.38816	436.68544	-63.24212	1455.76481	325.02855	-67.87422	1084.82621	429.67338	-399.10626	1017.31670	334.99467	-378.07049	1404.14651	874.77897	-44.68122	1445.14603	772.91784	-54.64923	1393.67495	727.85326	-48.86213	1306.03140	835.95900	-75.63425	1340.26583	731.74327	-71.85417	1335.35190	868.38371	-388.24653	1300.98098	738.75557	-380.36238	1230.09991	899.23625	-408.35079	1195.74782	767.26500	-403.16012	1392.71933	1149.43915	-84.06672	1206.59373	1184.22216	-170.48861	1391.29668	1138.16087	-365.44457	1207.94829	1188.49636	-263.33220	1311.58847	1670.15295	-277.33759	1363.43508	1631.05011	-94.85245	1377.39210	1606.30027	-441.19431	1434.44452	1565.17532	-230.79899	1439.26525	1561.41361	-288.43112	1259.14732	1395.17998	6.59279	1131.57874	1319.22699	-19.04181	1153.73464	1344.03273	48.68136	1200.27361	1133.84865	88.87803	1210.84264	1037.37973	95.38789	1183.54588	1044.83491	120.94834	1368.19544	1307.73064	-482.74809	1267.18108	1238.97439	-449.06875	1303.30016	1229.95570	-516.62448	1382.18104	1038.75413	-512.72945	1408.32319	963.80205	-495.05949	1386.59567	964.03992	-522.08987	1311.50480	1055.93205	-120.20980	1302.13662	1054.51490	-317.46395	1320.39717	1054.19145	-129.58179	1323.10432	1062.74080	-315.21922	
164	1.63000000	1456.72290	592.86457	-88.08588	1511.12988	455.49293	-101.45046	1518.87959	89.10763	-125.43975	1462.62767	67.40343	-188.46728	1661.42294	43.15060	-106.01483	1696.42672	79.60153	-155.88532	1203.70182	594.90363	-373.14451	1147.23320	394.20258	-339.86248	921.32805	175.84271	-336.28638	853.03557	176.65985	-272.84069	1008.52935	39.69391	-359.34361	1053.66546	53.66339	-298.44168	1529.42009	344.30846	-114.41158	1448.12553	437.55089	-62.24910	1462.75099	325.67250	-66.75334	1097.18400	431.10273	-400.83582	1027.43005	337.96632	-379.73884	1415.76356	876.38087	-44.23669	1456.64554	774.34344	-54.44521	1404.82517	729.44932	-48.00794	1317.93451	837.43978	-74.68314	1351.31435	733.13491	-70.82882	1347.76607	868.76502	-389.50973	1315.06598	738.62088	-382.22362	1242.00197	898.38147	-408.16935	1209.44737	765.93723	-403.37346	1404.37989	1150.30811	-84.50475	1217.64998	1184.86117	-170.47921	1401.97926	1139.04945	-365.58492	1218.68735	1188.68011	-263.45009	1321.69342	1671.75451	-272.35963	1373.63455	1630.16900	-90.62895	1386.98535	1609.90591	-437.40227	1444.65805	1566.24732	-227.47476	1449.46541	1563.27324	-285.11156	1271.29093	1392.71239	9.13602	1144.19006	1316.05532	-16.84912	1166.40654	1340.48596	51.13152	1214.16127	1130.24141	89.63837	1225.25492	1033.73182	95.36289	1198.00709	1040.90420	121.06319	1376.14042	1311.56306	-480.89050	1274.71013	1243.23757	-447.06284	1310.39664	1234.42500	-514.85435	1387.21071	1042.39219	-513.09633	1412.30123	966.84954	-496.26270	1390.63807	967.78008	-523.26897	1323.10058	1056.67840	-120.33882	1313.21962	1055.10320	-317.56754	1331.80438	1055.69543	-129.27778	1333.87367	1063.32078	-314.76632	
165	1.64000000	1467.18351	594.34169	-87.38100	1519.53952	455.64944	-101.01655	1519.86290	89.09433	-125.00411	1463.34087	68.01613	-187.98417	1662.29531	41.54048	-105.88527	1697.70205	77.67631	-155.71067	1220.74124	593.62372	-374.74030	1160.57861	393.89570	-342.14216	929.18770	181.50578	-338.15866	861.17479	185.73407	-274.75270	1010.16958	40.99850	-359.75398	1055.13933	53.64676	-298.75728	1535.85676	344.23546	-114.00223	1457.00249	438.85032	-60.92340	1469.64687	326.74601	-65.19208	1110.96349	432.49075	-402.51910	1038.90359	341.08179	-381.45126	1427.31953	878.50785	-43.58828	1468.26073	776.37902	-54.05402	1416.19657	731.55784	-47.13167	1329.70316	839.42158	-73.49070	1362.53807	734.72053	-69.83822	1360.42599	869.23589	-390.77844	1329.76812	738.54973	-384.15595	1254.22274	897.32160	-407.88578	1223.83989	764.27137	-403.71383	1415.76204	1151.73278	-84.87937	1228.50325	1185.85041	-170.56006	1412.37037	1140.15065	-365.64883	1229.17372	1189.14653	-263.68066	1331.78661	1673.56915	-267.42967	1383.78126	1629.56520	-86.50002	1396.61790	1613.84639	-433.65858	1454.81870	1567.57856	-224.18277	1459.60991	1565.34569	-281.82068	1283.40783	1390.52020	11.52930	1156.90702	1313.08806	-15.02333	1179.06455	1337.19032	53.40178	1228.13428	1126.93629	90.31133	1239.79446	1030.39411	95.28906	1212.61014	1037.29828	121.11797	1384.07353	1315.75052	-479.05717	1282.30269	1247.87267	-444.98478	1317.37434	1239.22768	-512.98890	1392.21710	1046.45207	-513.43451	1416.36674	970.36914	-497.42685	1394.67122	971.88723	-524.44208	1334.45154	1057.90484	-120.34900	1324.10351	1055.92482	-317.55004	1343.05602	1057.60195	-128.80490	1344.39208	1064.16992	-314.14969	
